<svg width="89" height="100" viewBox="0 0 89 100" fill="none" xmlns="http://www.w3.org/2000/svg">
<path d="M29.4985 80V83.75C29.4985 87.7283 31.0788 91.5436 33.8919 94.3566C36.7049 97.1697 40.5202 98.75 44.4985 98.75C48.4767 98.75 52.292 97.1697 55.1051 94.3566C57.9181 91.5436 59.4985 87.7283 59.4985 83.75V80" fill="url(#paint0_linear_5835_41621)"/>
<path d="M10.8437 42.5C10.8313 38.0722 11.6927 33.6855 13.3786 29.5913C15.0645 25.497 17.5416 21.7756 20.6682 18.6403C23.7947 15.505 27.5092 13.0175 31.5987 11.3202C35.6883 9.62287 40.0726 8.74919 44.5003 8.74919C48.9281 8.74919 53.3124 9.62287 57.402 11.3202C61.4915 13.0175 65.206 15.505 68.3325 18.6403C71.4591 21.7756 73.9362 25.497 75.6221 29.5913C77.308 33.6855 78.1694 38.0722 78.157 42.5C78.157 59.2886 81.6695 69.0308 84.7631 74.3554C85.0964 74.9243 85.2737 75.5711 85.2772 76.2304C85.2808 76.8898 85.1104 77.5384 84.7832 78.1109C84.456 78.6834 83.9837 79.1595 83.4138 79.4911C82.844 79.8228 82.1967 79.9983 81.5374 80H7.45956C6.80012 79.9983 6.1528 79.8227 5.58289 79.491C5.01297 79.1592 4.54063 78.6831 4.21351 78.1105C3.88638 77.5379 3.71605 76.8892 3.7197 76.2297C3.72334 75.5703 3.90083 74.9235 4.23426 74.3546C7.32954 69.0298 10.8437 59.2877 10.8437 42.5Z" fill="url(#paint1_linear_5835_41621)"/>
<path d="M70.4824 1.24453C78.113 6.06168 84.2641 12.8936 88.2567 20.9862L70.4824 1.24453Z" fill="url(#paint2_linear_5835_41621)"/>
<path d="M0.740234 20.9862C4.73283 12.8936 10.8839 6.06167 18.5145 1.24452L0.740234 20.9862Z" fill="url(#paint3_linear_5835_41621)"/>
<path d="M29.4985 80V83.75C29.4985 87.7283 31.0788 91.5436 33.8919 94.3566C36.7049 97.1697 40.5202 98.75 44.4985 98.75C48.4767 98.75 52.292 97.1697 55.1051 94.3566C57.9181 91.5436 59.4985 87.7283 59.4985 83.75V80M70.4824 1.24453C78.113 6.06168 84.2641 12.8936 88.2567 20.9862M0.740234 20.9862C4.73283 12.8936 10.8839 6.06167 18.5145 1.24452M10.8437 42.5C10.8313 38.0722 11.6927 33.6855 13.3786 29.5913C15.0645 25.497 17.5416 21.7756 20.6682 18.6403C23.7947 15.505 27.5092 13.0175 31.5987 11.3202C35.6883 9.62287 40.0726 8.74919 44.5003 8.74919C48.9281 8.74919 53.3124 9.62287 57.402 11.3202C61.4915 13.0175 65.206 15.505 68.3325 18.6403C71.4591 21.7756 73.9362 25.497 75.6221 29.5913C77.308 33.6855 78.1694 38.0722 78.157 42.5C78.157 59.2886 81.6695 69.0308 84.7631 74.3554C85.0964 74.9243 85.2737 75.5711 85.2772 76.2304C85.2808 76.8898 85.1103 77.5384 84.7832 78.1109C84.456 78.6834 83.9837 79.1594 83.4138 79.4911C82.844 79.8228 82.1967 79.9983 81.5374 80H7.45956C6.80012 79.9983 6.1528 79.8227 5.58289 79.491C5.01297 79.1592 4.54063 78.6831 4.21351 78.1105C3.88638 77.5379 3.71605 76.8892 3.7197 76.2297C3.72334 75.5703 3.90083 74.9235 4.23426 74.3546C7.32954 69.0298 10.8437 59.2877 10.8437 42.5Z" stroke="url(#paint4_linear_5835_41621)" stroke-width="1.20805" stroke-linecap="round" stroke-linejoin="round"/>
<defs>
<linearGradient id="paint0_linear_5835_41621" x1="0.740239" y1="105.595" x2="97.1974" y2="37.5209" gradientUnits="userSpaceOnUse">
<stop offset="0.046875" stop-color="#7CEFA7"/>
<stop offset="1" stop-color="#8FD3F4"/>
</linearGradient>
<linearGradient id="paint1_linear_5835_41621" x1="0.740239" y1="105.595" x2="97.1974" y2="37.5209" gradientUnits="userSpaceOnUse">
<stop offset="0.046875" stop-color="#7CEFA7"/>
<stop offset="1" stop-color="#8FD3F4"/>
</linearGradient>
<linearGradient id="paint2_linear_5835_41621" x1="0.740239" y1="105.595" x2="97.1974" y2="37.5209" gradientUnits="userSpaceOnUse">
<stop offset="0.046875" stop-color="#7CEFA7"/>
<stop offset="1" stop-color="#8FD3F4"/>
</linearGradient>
<linearGradient id="paint3_linear_5835_41621" x1="0.740239" y1="105.595" x2="97.1974" y2="37.5209" gradientUnits="userSpaceOnUse">
<stop offset="0.046875" stop-color="#7CEFA7"/>
<stop offset="1" stop-color="#8FD3F4"/>
</linearGradient>
<linearGradient id="paint4_linear_5835_41621" x1="0.740239" y1="105.595" x2="97.1974" y2="37.5209" gradientUnits="userSpaceOnUse">
<stop offset="0.046875" stop-color="#7CEFA7"/>
<stop offset="1" stop-color="#8FD3F4"/>
</linearGradient>
</defs>
</svg>
