<svg viewBox="0 0 325 325" fill="none" xmlns="http://www.w3.org/2000/svg">
<path d="M324.719 152.868C324.857 155.221 324.944 157.587 324.981 159.965C324.705 159.969 324.484 160.195 324.488 160.471C324.496 161.147 324.5 161.823 324.5 162.5C324.5 163.177 324.496 163.853 324.488 164.529C324.484 164.805 324.705 165.031 324.981 165.035C324.944 167.413 324.857 169.779 324.719 172.132C324.444 172.116 324.207 172.325 324.19 172.601C324.107 173.949 324.008 175.292 323.892 176.631C323.868 176.906 324.072 177.148 324.347 177.172C324.135 179.54 323.872 181.894 323.56 184.231C323.286 184.195 323.035 184.386 322.997 184.659C322.814 185.995 322.615 187.326 322.4 188.652C322.356 188.924 322.541 189.181 322.813 189.225C322.425 191.569 321.987 193.897 321.5 196.206C321.23 196.149 320.965 196.321 320.907 196.59C320.624 197.91 320.326 199.224 320.011 200.531C319.947 200.799 320.111 201.069 320.38 201.134C319.817 203.441 319.205 205.729 318.545 207.996C318.28 207.919 318.003 208.07 317.925 208.335C317.544 209.628 317.148 210.914 316.736 212.193C316.651 212.456 316.796 212.738 317.058 212.822C316.324 215.08 315.541 217.315 314.712 219.527C314.454 219.43 314.166 219.56 314.068 219.818C313.591 221.079 313.098 222.333 312.591 223.579C312.487 223.834 312.609 224.126 312.865 224.23C311.963 226.424 311.015 228.594 310.021 230.739C309.771 230.623 309.474 230.731 309.357 230.981C308.787 232.202 308.201 233.415 307.602 234.619C307.479 234.866 307.579 235.166 307.826 235.289C306.762 237.408 305.653 239.501 304.501 241.566C304.26 241.432 303.956 241.517 303.821 241.758C303.161 242.932 302.486 244.098 301.798 245.254C301.657 245.491 301.735 245.797 301.971 245.939C300.753 247.972 299.49 249.976 298.187 251.95C297.957 251.797 297.647 251.86 297.494 252.09C296.748 253.212 295.988 254.324 295.215 255.426C295.057 255.652 295.111 255.963 295.337 256.122C293.97 258.057 292.562 259.962 291.114 261.834C290.896 261.665 290.582 261.704 290.413 261.922C289.586 262.984 288.746 264.037 287.893 265.078C287.718 265.291 287.749 265.606 287.962 265.781C286.456 267.609 284.91 269.404 283.326 271.163C283.121 270.979 282.806 270.994 282.621 271.199C281.717 272.197 280.8 273.184 279.872 274.16C279.682 274.36 279.69 274.676 279.889 274.866C278.251 276.577 276.577 278.251 274.866 279.889C274.676 279.69 274.36 279.682 274.16 279.872C273.184 280.8 272.197 281.717 271.199 282.62C270.994 282.806 270.979 283.121 271.163 283.326C269.404 284.91 267.609 286.456 265.781 287.962C265.606 287.749 265.291 287.718 265.078 287.893C264.037 288.746 262.984 289.586 261.922 290.413C261.704 290.582 261.665 290.896 261.834 291.114C259.962 292.562 258.057 293.97 256.122 295.337C255.963 295.111 255.652 295.057 255.426 295.215C254.324 295.988 253.212 296.748 252.09 297.494C251.86 297.647 251.797 297.957 251.95 298.187C249.976 299.49 247.972 300.753 245.939 301.971C245.797 301.735 245.491 301.657 245.254 301.798C244.098 302.486 242.932 303.161 241.758 303.821C241.517 303.956 241.432 304.26 241.566 304.501C239.501 305.653 237.408 306.762 235.289 307.826C235.166 307.579 234.866 307.479 234.619 307.602C233.415 308.201 232.202 308.786 230.981 309.357C230.731 309.474 230.623 309.771 230.739 310.021C228.594 311.015 226.424 311.963 224.23 312.865C224.126 312.609 223.834 312.487 223.579 312.591C222.333 313.098 221.079 313.591 219.818 314.068C219.56 314.166 219.43 314.454 219.527 314.712C217.315 315.541 215.079 316.324 212.822 317.058C212.738 316.796 212.456 316.651 212.194 316.736C210.914 317.148 209.628 317.544 208.335 317.925C208.07 318.003 207.919 318.28 207.996 318.545C205.729 319.205 203.441 319.817 201.134 320.38C201.069 320.111 200.799 319.947 200.531 320.011C199.224 320.326 197.91 320.624 196.59 320.907C196.321 320.965 196.149 321.23 196.206 321.5C193.897 321.987 191.569 322.425 189.225 322.813C189.181 322.541 188.924 322.356 188.652 322.4C187.326 322.615 185.995 322.814 184.659 322.997C184.386 323.035 184.195 323.286 184.231 323.56C181.894 323.872 179.54 324.135 177.172 324.347C177.148 324.072 176.906 323.868 176.631 323.892C175.292 324.008 173.949 324.107 172.601 324.19C172.325 324.207 172.116 324.444 172.132 324.719C169.779 324.857 167.413 324.944 165.035 324.981C165.031 324.705 164.805 324.484 164.529 324.488C163.853 324.496 163.177 324.5 162.5 324.5C161.823 324.5 161.147 324.496 160.471 324.488C160.195 324.484 159.969 324.705 159.965 324.981C157.587 324.944 155.221 324.857 152.868 324.719C152.884 324.444 152.675 324.207 152.399 324.19C151.051 324.107 149.708 324.008 148.369 323.892C148.094 323.868 147.852 324.072 147.828 324.347C145.46 324.135 143.106 323.872 140.769 323.56C140.805 323.286 140.614 323.035 140.341 322.997C139.005 322.814 137.674 322.615 136.348 322.4C136.076 322.356 135.819 322.541 135.775 322.813C133.431 322.425 131.103 321.987 128.794 321.5C128.851 321.23 128.679 320.965 128.41 320.907C127.09 320.624 125.776 320.326 124.469 320.011C124.201 319.947 123.931 320.111 123.866 320.38C121.559 319.817 119.271 319.205 117.004 318.545C117.081 318.28 116.93 318.003 116.665 317.925C115.372 317.544 114.086 317.148 112.807 316.736C112.544 316.651 112.262 316.796 112.178 317.058C109.921 316.324 107.685 315.541 105.473 314.712C105.57 314.454 105.44 314.166 105.182 314.068C103.921 313.591 102.667 313.098 101.421 312.591C101.166 312.487 100.874 312.609 100.77 312.865C98.5758 311.963 96.4058 311.015 94.261 310.021C94.3773 309.771 94.2692 309.474 94.0193 309.357C92.7982 308.787 91.5855 308.201 90.3812 307.602C90.1343 307.479 89.8344 307.579 89.7111 307.826C87.5917 306.762 85.4988 305.653 83.4336 304.501C83.5684 304.26 83.4828 303.956 83.2423 303.821C82.0679 303.161 80.9025 302.486 79.7463 301.798C79.5093 301.657 79.2028 301.735 79.0613 301.971C77.0284 300.753 75.0242 299.49 73.0503 298.187C73.2026 297.957 73.1401 297.647 72.9104 297.494C71.7884 296.748 70.6763 295.988 69.5743 295.215C69.3484 295.057 69.037 295.111 68.8783 295.337C66.9426 293.97 65.0381 292.562 63.1661 291.114C63.3352 290.896 63.2959 290.582 63.0782 290.413C62.0155 289.586 60.9634 288.746 59.922 287.893C59.7086 287.718 59.394 287.749 59.2189 287.962C57.3909 286.456 55.5963 284.91 53.8366 283.326C54.0214 283.121 54.0055 282.806 53.801 282.621C52.8027 281.717 51.8157 280.8 50.8402 279.872C50.6404 279.682 50.3243 279.69 50.1339 279.889C48.4234 278.251 46.7487 276.577 45.111 274.866C45.3105 274.676 45.3182 274.36 45.128 274.16C44.1997 273.184 43.2835 272.197 42.3795 271.199C42.1943 270.994 41.8786 270.979 41.6738 271.163C40.0902 269.404 38.5444 267.609 37.0379 265.781C37.2509 265.606 37.2821 265.291 37.1073 265.078C36.2544 264.037 35.4142 262.984 34.587 261.922C34.4176 261.704 34.1038 261.665 33.886 261.834C32.438 259.962 31.03 258.057 29.6633 256.122C29.8888 255.963 29.9433 255.652 29.7849 255.426C29.0118 254.324 28.2521 253.212 27.5061 252.09C27.3533 251.86 27.0434 251.797 26.8135 251.95C25.5095 249.976 24.2475 247.972 23.0287 245.939C23.2654 245.797 23.343 245.491 23.2018 245.254C22.5135 244.098 21.8392 242.932 21.1791 241.758C21.0439 241.517 20.7395 241.432 20.4989 241.566C19.3466 239.501 18.2379 237.408 17.1743 235.289C17.421 235.166 17.5213 234.866 17.3983 234.619C16.7986 233.415 16.2135 232.202 15.6431 230.981C15.5264 230.731 15.2293 230.623 14.9792 230.739C13.9854 228.594 13.0371 226.424 12.1353 224.23C12.3906 224.126 12.5131 223.834 12.409 223.579C11.9016 222.333 11.4091 221.079 10.932 219.818C10.8344 219.56 10.5462 219.43 10.2882 219.527C9.45885 217.315 8.6764 215.08 7.94202 212.822C8.20441 212.738 8.34854 212.456 8.264 212.194C7.85211 210.914 7.45569 209.628 7.07497 208.335C6.99705 208.07 6.71953 207.919 6.45485 207.996C5.79494 205.729 5.18309 203.441 4.6205 201.134C4.88853 201.069 5.05345 200.799 4.98892 200.531C4.67436 199.224 4.37566 197.91 4.09304 196.59C4.03526 196.321 3.76993 196.149 3.50017 196.206C3.01306 193.897 2.575 191.569 2.18711 189.225C2.45926 189.181 2.64398 188.924 2.59979 188.652C2.38467 187.326 2.18563 185.995 2.00289 184.659C1.9655 184.386 1.71381 184.195 1.4405 184.231C1.12807 181.894 0.865344 179.54 0.653417 177.172C0.928148 177.148 1.13151 176.906 1.10775 176.631C0.992069 175.292 0.892666 173.949 0.809746 172.601C0.792807 172.325 0.556048 172.116 0.280751 172.132C0.143218 169.779 0.0557404 167.413 0.0193681 165.035C0.295138 165.031 0.515826 164.805 0.512441 164.529C0.504155 163.853 0.5 163.177 0.5 162.5C0.5 161.823 0.504155 161.147 0.51244 160.471C0.515826 160.195 0.295137 159.969 0.0193679 159.965C0.05574 157.587 0.143217 155.221 0.28075 152.868C0.556047 152.884 0.792806 152.675 0.809745 152.399C0.892664 151.051 0.992067 149.708 1.10775 148.369C1.1315 148.094 0.928147 147.852 0.653416 147.828C0.865342 145.46 1.12807 143.106 1.4405 140.769C1.7138 140.805 1.9655 140.614 2.00289 140.341C2.18563 139.005 2.38467 137.674 2.59978 136.348C2.64398 136.076 2.45926 135.819 2.1871 135.775C2.575 133.431 3.01306 131.103 3.50017 128.794C3.76993 128.851 4.03526 128.679 4.09303 128.41C4.37566 127.09 4.67436 125.776 4.98891 124.469C5.05345 124.201 4.88853 123.931 4.62049 123.866C5.18309 121.559 5.79493 119.271 6.45485 117.004C6.71953 117.081 6.99705 116.93 7.07497 116.665C7.45569 115.372 7.8521 114.086 8.26399 112.807C8.34854 112.544 8.2044 112.262 7.94201 112.178C8.6764 109.921 9.45884 107.685 10.2881 105.473C10.5462 105.57 10.8344 105.44 10.932 105.182C11.4091 103.921 11.9016 102.667 12.409 101.421C12.5131 101.166 12.3906 100.874 12.1353 100.77C13.0371 98.5758 13.9854 96.4058 14.9792 94.261C15.2292 94.3774 15.5264 94.2692 15.6431 94.0193C16.2135 92.7982 16.7986 91.5855 17.3983 90.3812C17.5213 90.1343 17.421 89.8344 17.1743 89.7111C18.2379 87.5917 19.3466 85.4988 20.4989 83.4336C20.7395 83.5684 21.0439 83.4828 21.1791 83.2423C21.8392 82.0679 22.5135 80.9025 23.2018 79.7463C23.343 79.5093 23.2654 79.2028 23.0286 79.0613C24.2475 77.0284 25.5095 75.0243 26.8135 73.0503C27.0433 73.2026 27.3533 73.1401 27.506 72.9104C28.2521 71.7884 29.0118 70.6763 29.7849 69.5743C29.9433 69.3484 29.8888 69.037 29.6633 68.8783C31.03 66.9426 32.438 65.0381 33.8859 63.1661C34.1038 63.3352 34.4176 63.2959 34.587 63.0782C35.4142 62.0155 36.2544 60.9634 37.1073 59.922C37.2821 59.7086 37.2509 59.394 37.0378 59.2189C38.5444 57.3909 40.0902 55.5963 41.6738 53.8366C41.8785 54.0214 42.1943 54.0055 42.3795 53.801C43.2835 52.8027 44.1997 51.8157 45.128 50.8402C45.3181 50.6404 45.3105 50.3243 45.111 50.1339C46.7487 48.4234 48.4234 46.7487 50.1339 45.111C50.3243 45.3105 50.6404 45.3181 50.8402 45.128C51.8157 44.1997 52.8027 43.2835 53.801 42.3795C54.0055 42.1943 54.0214 41.8785 53.8366 41.6738C55.5963 40.0902 57.3908 38.5444 59.2189 37.0378C59.3939 37.2509 59.7086 37.2821 59.922 37.1073C60.9634 36.2544 62.0155 35.4142 63.0782 34.587C63.2959 34.4176 63.3352 34.1038 63.1661 33.886C65.0381 32.438 66.9426 31.03 68.8783 29.6633C69.037 29.8888 69.3484 29.9433 69.5743 29.7849C70.6763 29.0118 71.7884 28.2521 72.9103 27.5061C73.1401 27.3533 73.2026 27.0434 73.0502 26.8135C75.0242 25.5095 77.0283 24.2475 79.0613 23.0287C79.2027 23.2654 79.5093 23.343 79.7463 23.2018C80.9024 22.5135 82.0678 21.8392 83.2423 21.1791C83.4828 21.0439 83.5683 20.7395 83.4336 20.4989C85.4988 19.3466 87.5917 18.2379 89.7111 17.1743C89.8344 17.421 90.1343 17.5213 90.3812 17.3983C91.5854 16.7986 92.7982 16.2135 94.0192 15.6431C94.2692 15.5264 94.3773 15.2293 94.261 14.9792C96.4057 13.9854 98.5758 13.0371 100.77 12.1353C100.874 12.3906 101.166 12.5131 101.421 12.409C102.667 11.9016 103.921 11.4091 105.182 10.932C105.44 10.8344 105.57 10.5462 105.473 10.2882C107.685 9.45885 109.92 8.6764 112.178 7.94202C112.262 8.20441 112.544 8.34854 112.806 8.264C114.086 7.85211 115.372 7.45569 116.665 7.07497C116.93 6.99705 117.081 6.71953 117.004 6.45485C119.271 5.79494 121.559 5.18309 123.866 4.6205C123.931 4.88853 124.201 5.05345 124.469 4.98892C125.776 4.67436 127.09 4.37566 128.41 4.09304C128.679 4.03526 128.851 3.76993 128.794 3.50017C131.103 3.01306 133.431 2.575 135.775 2.18711C135.819 2.45926 136.076 2.64398 136.348 2.59979C137.674 2.38467 139.005 2.18563 140.341 2.00289C140.614 1.9655 140.805 1.71381 140.769 1.4405C143.106 1.12807 145.46 0.865344 147.828 0.653417C147.852 0.928148 148.094 1.13151 148.369 1.10775C149.708 0.992069 151.051 0.892666 152.399 0.809746C152.675 0.792807 152.884 0.556048 152.868 0.280751C155.221 0.143218 157.587 0.0557405 159.965 0.0193681C159.969 0.295138 160.195 0.515826 160.471 0.512441C161.147 0.504155 161.823 0.5 162.5 0.5C163.177 0.5 163.853 0.504155 164.529 0.51244C164.805 0.515826 165.031 0.295137 165.035 0.0193679C167.413 0.05574 169.779 0.143217 172.132 0.28075C172.116 0.556047 172.325 0.792806 172.601 0.809745C173.949 0.892664 175.292 0.992067 176.631 1.10775C176.906 1.1315 177.148 0.928147 177.172 0.653416C179.54 0.865342 181.894 1.12807 184.231 1.4405C184.195 1.7138 184.386 1.9655 184.659 2.00289C185.995 2.18563 187.326 2.38467 188.652 2.59978C188.924 2.64398 189.181 2.45926 189.225 2.1871C191.569 2.57499 193.897 3.01306 196.206 3.50017C196.149 3.76993 196.321 4.03526 196.59 4.09303C197.91 4.37566 199.224 4.67436 200.531 4.98891C200.799 5.05345 201.069 4.88853 201.134 4.62049C203.441 5.18309 205.729 5.79493 207.996 6.45485C207.919 6.71953 208.07 6.99705 208.335 7.07497C209.628 7.45569 210.914 7.8521 212.193 8.26399C212.456 8.34854 212.738 8.2044 212.822 7.94202C215.079 8.6764 217.315 9.45885 219.527 10.2882C219.43 10.5462 219.56 10.8344 219.818 10.932C221.079 11.4091 222.333 11.9016 223.579 12.409C223.834 12.5131 224.126 12.3906 224.23 12.1353C226.424 13.0371 228.594 13.9854 230.739 14.9792C230.623 15.2292 230.731 15.5264 230.981 15.6431C232.202 16.2135 233.415 16.7986 234.619 17.3983C234.866 17.5213 235.166 17.421 235.289 17.1743C237.408 18.2379 239.501 19.3466 241.566 20.4989C241.432 20.7395 241.517 21.0439 241.758 21.1791C242.932 21.8392 244.098 22.5135 245.254 23.2018C245.491 23.343 245.797 23.2654 245.939 23.0286C247.972 24.2475 249.976 25.5095 251.95 26.8135C251.797 27.0433 251.86 27.3533 252.09 27.506C253.212 28.2521 254.324 29.0118 255.426 29.7849C255.652 29.9433 255.963 29.8888 256.122 29.6633C258.057 31.03 259.962 32.438 261.834 33.8859C261.665 34.1038 261.704 34.4176 261.922 34.587C262.984 35.4142 264.037 36.2544 265.078 37.1073C265.291 37.2821 265.606 37.2509 265.781 37.0379C267.609 38.5444 269.404 40.0902 271.163 41.6738C270.979 41.8785 270.994 42.1943 271.199 42.3795C272.197 43.2835 273.184 44.1997 274.16 45.128C274.36 45.3181 274.676 45.3105 274.866 45.111C276.577 46.7487 278.251 48.4234 279.889 50.1339C279.69 50.3243 279.682 50.6404 279.872 50.8402C280.8 51.8157 281.717 52.8027 282.62 53.801C282.806 54.0055 283.121 54.0214 283.326 53.8365C284.91 55.5963 286.456 57.3908 287.962 59.2189C287.749 59.3939 287.718 59.7086 287.893 59.922C288.746 60.9634 289.586 62.0155 290.413 63.0782C290.582 63.2959 290.896 63.3352 291.114 63.1661C292.562 65.0381 293.97 66.9426 295.337 68.8783C295.111 69.037 295.057 69.3484 295.215 69.5743C295.988 70.6763 296.748 71.7884 297.494 72.9103C297.647 73.1401 297.957 73.2026 298.187 73.0502C299.49 75.0242 300.753 77.0283 301.971 79.0613C301.735 79.2027 301.657 79.5093 301.798 79.7463C302.486 80.9024 303.161 82.0678 303.821 83.2423C303.956 83.4828 304.26 83.5683 304.501 83.4336C305.653 85.4988 306.762 87.5917 307.826 89.7111C307.579 89.8344 307.479 90.1343 307.602 90.3812C308.201 91.5854 308.786 92.7982 309.357 94.0192C309.474 94.2692 309.771 94.3773 310.021 94.261C311.015 96.4057 311.963 98.5758 312.865 100.77C312.609 100.874 312.487 101.166 312.591 101.421C313.098 102.667 313.591 103.921 314.068 105.182C314.166 105.44 314.454 105.57 314.712 105.473C315.541 107.685 316.324 109.92 317.058 112.178C316.796 112.262 316.651 112.544 316.736 112.806C317.148 114.086 317.544 115.372 317.925 116.665C318.003 116.93 318.28 117.081 318.545 117.004C319.205 119.271 319.817 121.559 320.38 123.866C320.111 123.931 319.947 124.201 320.011 124.469C320.326 125.776 320.624 127.09 320.907 128.41C320.965 128.679 321.23 128.851 321.5 128.794C321.987 131.103 322.425 133.431 322.813 135.775C322.541 135.819 322.356 136.076 322.4 136.348C322.615 137.674 322.814 139.005 322.997 140.341C323.035 140.614 323.286 140.805 323.56 140.769C323.872 143.106 324.135 145.46 324.347 147.828C324.072 147.852 323.868 148.094 323.892 148.369C324.008 149.708 324.107 151.051 324.19 152.399C324.207 152.675 324.444 152.884 324.719 152.868Z" stroke="url(#paint0_linear_910_1764)" stroke-linecap="round" stroke-linejoin="round" stroke-dasharray="4 8"/>
<defs>
<linearGradient id="paint0_linear_910_1764" x1="1.64295e-05" y1="347.814" x2="331.599" y2="87.0805" gradientUnits="userSpaceOnUse">
<stop offset="0.046875" stop-color="#7CEFA7"/>
<stop offset="1" stop-color="#8FD3F4"/>
</linearGradient>
</defs>
</svg>
